<svg xmlns="http://www.w3.org/2000/svg" width="81.126" height="41.093" viewBox="0 0 81.126 41.093">
  <path id="Path_991" data-name="Path 991" d="M-1450.045-121.645a12.981,12.981,0,0,1-4.581-2.04,9.338,9.338,0,0,1-3.006-3.687,12.892,12.892,0,0,1-1.074-5.511,10.611,10.611,0,0,1,1.253-5.3,9.977,9.977,0,0,1,3.4-3.579,15.728,15.728,0,0,1,5.01-2,27.3,27.3,0,0,1,6.013-.644q1,0,2.077.108t2.039.286q.967.179,1.683.322c.477.1.812.167,1,.215v-1.861a14.987,14.987,0,0,0-.357-3.257,7.449,7.449,0,0,0-1.289-2.864,6.528,6.528,0,0,0-2.541-2,9.973,9.973,0,0,0-4.187-.751,31.407,31.407,0,0,0-5.764.465,20.158,20.158,0,0,0-3.686.966l-.788-5.512a20.571,20.571,0,0,1,4.3-1.11,37.124,37.124,0,0,1,6.513-.537,19.286,19.286,0,0,1,6.764,1.038,10.97,10.97,0,0,1,4.438,2.934,11.116,11.116,0,0,1,2.4,4.509,21.8,21.8,0,0,1,.716,5.763v23.263q-.86.143-2.4.394t-3.471.465q-1.934.215-4.188.394t-4.473.179A24.544,24.544,0,0,1-1450.045-121.645Zm4.4-17.18a9.828,9.828,0,0,0-3.078.9,6.59,6.59,0,0,0-2.326,1.861,4.886,4.886,0,0,0-.93,3.114q0,3.579,2.291,4.975a11.923,11.923,0,0,0,6.228,1.4q2.363,0,4.187-.107a18.276,18.276,0,0,0,3.042-.394v-11.1a8.54,8.54,0,0,0-2.326-.608,25.894,25.894,0,0,0-3.9-.251A25.221,25.221,0,0,0-1445.642-138.825Zm21.353,16.521q-.825-.243-1.122-.371l.36-1.7q.339.127,1.081.381a6.222,6.222,0,0,0,1.97.255,3.881,3.881,0,0,0,1.791-.318,1.075,1.075,0,0,0,.582-1.017,1.349,1.349,0,0,0-.572-1.144,9.053,9.053,0,0,0-1.886-.953q-.635-.255-1.217-.519a4.3,4.3,0,0,1-1.007-.625,2.74,2.74,0,0,1-.678-.869,2.774,2.774,0,0,1-.255-1.25,2.807,2.807,0,0,1,1.081-2.32,4.61,4.61,0,0,1,2.945-.858,8.244,8.244,0,0,1,.931.053q.467.053.869.127t.71.159c.2.056.363.106.477.149l-.36,1.694a5.012,5.012,0,0,0-1-.349,6.422,6.422,0,0,0-1.631-.18,3.018,3.018,0,0,0-1.441.328,1.089,1.089,0,0,0-.615,1.028,1.412,1.412,0,0,0,.137.636,1.487,1.487,0,0,0,.424.5,3.5,3.5,0,0,0,.709.413q.425.192,1.017.4.784.3,1.4.583a4.4,4.4,0,0,1,1.049.667,2.556,2.556,0,0,1,.667.921,3.345,3.345,0,0,1,.233,1.324,2.626,2.626,0,0,1-1.134,2.309,5.643,5.643,0,0,1-3.231.785A8.458,8.458,0,0,1-1424.289-122.3Zm-43.717-.064a2.707,2.707,0,0,1-1.177-.858,3.441,3.441,0,0,1-.625-1.408,9.316,9.316,0,0,1-.18-1.939v-9.83l1.971-.338v3.41h4.174v1.653h-4.174v5.084a6.1,6.1,0,0,0,.127,1.366,2.049,2.049,0,0,0,.381.848,1.372,1.372,0,0,0,.636.435,2.807,2.807,0,0,0,.889.127,4.18,4.18,0,0,0,1.43-.2q.541-.2.752-.286l.381,1.631a7.332,7.332,0,0,1-1.038.371,5.892,5.892,0,0,1-1.7.222A5.135,5.135,0,0,1-1468.007-122.367Zm-26.43.1a3.825,3.825,0,0,1-1.357-.6,2.762,2.762,0,0,1-.889-1.091A3.829,3.829,0,0,1-1497-125.6a3.127,3.127,0,0,1,.371-1.567,2.951,2.951,0,0,1,1.006-1.059,4.643,4.643,0,0,1,1.484-.593,8.04,8.04,0,0,1,1.779-.191q.3,0,.615.031t.6.085q.286.053.5.1c.141.029.24.05.3.064v-.551a4.438,4.438,0,0,0-.107-.964,2.2,2.2,0,0,0-.381-.848,1.924,1.924,0,0,0-.752-.593,2.938,2.938,0,0,0-1.239-.223,9.239,9.239,0,0,0-1.705.138,5.909,5.909,0,0,0-1.092.286l-.233-1.631a6.018,6.018,0,0,1,1.271-.329,10.988,10.988,0,0,1,1.928-.159,5.7,5.7,0,0,1,2,.308,3.228,3.228,0,0,1,1.314.869,3.3,3.3,0,0,1,.71,1.335,6.457,6.457,0,0,1,.212,1.706v6.885l-.71.116q-.454.074-1.027.138t-1.239.116q-.668.053-1.324.052A7.218,7.218,0,0,1-1494.436-122.272Zm1.3-5.084a2.887,2.887,0,0,0-.911.265,1.938,1.938,0,0,0-.688.551,1.439,1.439,0,0,0-.276.921,1.583,1.583,0,0,0,.678,1.473,3.524,3.524,0,0,0,1.843.413q.7,0,1.239-.031a5.417,5.417,0,0,0,.9-.117v-3.283a2.543,2.543,0,0,0-.689-.18,7.641,7.641,0,0,0-1.155-.074A7.551,7.551,0,0,0-1493.134-127.356Zm16.854,5.042a17.268,17.268,0,0,0-1.028-1.515q-.582-.774-1.217-1.483a17.535,17.535,0,0,0-1.293-1.3,11.649,11.649,0,0,0-1.25-1v5.3h-1.971v-16.1l1.971-.339v10.043q.507-.509,1.123-1.123t1.207-1.25q.593-.636,1.123-1.218t.911-1.028h2.309q-.487.531-1.059,1.166t-1.187,1.281q-.613.646-1.239,1.293t-1.176,1.217a13.159,13.159,0,0,1,1.345,1.208q.709.721,1.4,1.557t1.3,1.7a18.593,18.593,0,0,1,1.038,1.6Zm7.733-22.235q-.827-.245-1.123-.371l.361-1.7q.339.127,1.081.381a6.22,6.22,0,0,0,1.97.255,3.866,3.866,0,0,0,1.79-.318,1.074,1.074,0,0,0,.582-1.016,1.349,1.349,0,0,0-.572-1.144,9.005,9.005,0,0,0-1.886-.953q-.634-.255-1.217-.52a4.249,4.249,0,0,1-1.007-.624,2.743,2.743,0,0,1-.678-.869,2.774,2.774,0,0,1-.255-1.251,2.807,2.807,0,0,1,1.08-2.32,4.613,4.613,0,0,1,2.945-.858,8.268,8.268,0,0,1,.933.053q.466.053.868.127c.269.05.505.1.71.159s.363.106.477.148l-.36,1.7a4.933,4.933,0,0,0-1-.35,6.429,6.429,0,0,0-1.632-.18,3.013,3.013,0,0,0-1.441.329,1.09,1.09,0,0,0-.614,1.028,1.4,1.4,0,0,0,.137.635,1.482,1.482,0,0,0,.424.5,3.5,3.5,0,0,0,.71.413q.423.19,1.017.4.784.3,1.4.583a4.409,4.409,0,0,1,1.049.667,2.571,2.571,0,0,1,.667.922,3.363,3.363,0,0,1,.232,1.324,2.626,2.626,0,0,1-1.133,2.309,5.644,5.644,0,0,1-3.231.784A8.464,8.464,0,0,1-1468.547-144.549Zm-11.673.031a3.834,3.834,0,0,1-1.356-.6,2.766,2.766,0,0,1-.89-1.092,3.816,3.816,0,0,1-.318-1.631,3.128,3.128,0,0,1,.371-1.567,2.945,2.945,0,0,1,1.006-1.059,4.67,4.67,0,0,1,1.483-.594,8.1,8.1,0,0,1,1.78-.191,5.958,5.958,0,0,1,.614.032q.318.031.6.085t.5.1c.141.028.239.049.3.063v-.551a4.384,4.384,0,0,0-.107-.964,2.211,2.211,0,0,0-.381-.848,1.934,1.934,0,0,0-.751-.593,2.96,2.96,0,0,0-1.24-.222,9.336,9.336,0,0,0-1.706.137,6.094,6.094,0,0,0-1.091.286l-.232-1.631a6.088,6.088,0,0,1,1.271-.328,10.981,10.981,0,0,1,1.928-.159,5.725,5.725,0,0,1,2,.307,3.247,3.247,0,0,1,1.314.869,3.307,3.307,0,0,1,.71,1.335,6.436,6.436,0,0,1,.212,1.706v6.886l-.71.116q-.455.074-1.027.137c-.381.043-.8.081-1.24.116s-.887.053-1.324.053A7.268,7.268,0,0,1-1480.22-144.517Zm1.3-5.084a2.91,2.91,0,0,0-.911.264,1.953,1.953,0,0,0-.688.551,1.448,1.448,0,0,0-.275.922,1.582,1.582,0,0,0,.678,1.472,3.527,3.527,0,0,0,1.843.414q.7,0,1.239-.032a5.419,5.419,0,0,0,.9-.116v-3.283a2.54,2.54,0,0,0-.689-.18,7.635,7.635,0,0,0-1.155-.074A7.368,7.368,0,0,0-1478.918-149.6Zm60.075,5.042v-5.763a9.434,9.434,0,0,0-.138-1.737,2.922,2.922,0,0,0-.456-1.165,1.8,1.8,0,0,0-.848-.646,3.709,3.709,0,0,0-1.312-.2c-.213,0-.431.007-.657.021s-.442.031-.646.053-.388.046-.551.073-.278.05-.35.064v9.3h-1.97v-10.7q.678-.169,1.8-.359a15.509,15.509,0,0,1,2.585-.191,5.594,5.594,0,0,1,2.182.37,3.425,3.425,0,0,1,1.387,1.038,4.016,4.016,0,0,1,.732,1.6,9.3,9.3,0,0,1,.211,2.056v6.186Zm-70.445,0v-5.763a9.424,9.424,0,0,0-.138-1.737,2.913,2.913,0,0,0-.456-1.165,1.8,1.8,0,0,0-.847-.646,3.723,3.723,0,0,0-1.314-.2,5.4,5.4,0,0,0-.657.042q-.339.043-.646.1c-.2.035-.388.074-.551.116a3.287,3.287,0,0,0-.349.107v9.152h-1.971v-16.1l1.971-.339v5.635a6.657,6.657,0,0,1,1.176-.328,6.7,6.7,0,0,1,1.239-.116,5.592,5.592,0,0,1,2.182.37,3.425,3.425,0,0,1,1.387,1.038,4.017,4.017,0,0,1,.731,1.6,9.3,9.3,0,0,1,.211,2.056v6.186Z" transform="translate(1497.5 161.594)" fill="#1e1e1e" stroke="rgba(0,0,0,0)" stroke-width="1"/>
</svg>
